/* XPM */
static char *result[] = {
/* columns rows colors chars-per-pixel */
"16 16 204 2 ",
"   c #A3751F",
".  c #A4771F",
"X  c #9C6D20",
"o  c #9F7123",
"O  c #9A7926",
"+  c #9E7C2B",
"@  c #977A37",
"#  c #9E7931",
"$  c #A77B27",
"%  c #A07E28",
"&  c #A27F2C",
"*  c #A67D2C",
"=  c #AA7F2A",
"-  c #AD8024",
";  c #A3812F",
":  c #AD8229",
">  c #AD822A",
",  c #AB822E",
"<  c #A9862F",
"1  c #B0862F",
"2  c #B3892D",
"3  c #A28130",
"4  c #A38333",
"5  c #A48333",
"6  c #A78634",
"7  c #A98032",
"8  c #AE8531",
"9  c #AF8733",
"0  c #A88437",
"q  c #A98737",
"w  c #A1803A",
"e  c #A68139",
"r  c #A6883F",
"t  c #AB8838",
"y  c #B28834",
"u  c #B18936",
"i  c #B18D3B",
"p  c #B58E3C",
"a  c #B29035",
"s  c #B7953A",
"d  c #BA923A",
"f  c #A78941",
"g  c #AE8844",
"h  c #AD8F45",
"j  c #B78E41",
"k  c #B08D45",
"l  c #B18E49",
"z  c #B18F4E",
"x  c #AF914A",
"c  c #AC904F",
"v  c #BA9541",
"b  c #BA9543",
"n  c #BA9746",
"m  c #B6954B",
"M  c #B4924E",
"N  c #BC9649",
"B  c #B9974E",
"V  c #BA974F",
"C  c #BA994A",
"Z  c #BE9948",
"A  c #B9984E",
"S  c #B9984F",
"D  c #BD9C4F",
"F  c #B69350",
"G  c #B79451",
"H  c #B99950",
"J  c #B99951",
"K  c #BD9B52",
"L  c #BD9C51",
"P  c #BE9C51",
"I  c #BD9D52",
"U  c #BB9854",
"Y  c #BC9857",
"T  c #B99C57",
"R  c #BC9C54",
"E  c #BE9C54",
"W  c #BF9F55",
"Q  c #BF9E56",
"!  c #BA9D59",
"~  c #BE9F58",
"^  c #C29D49",
"/  c #C09D51",
"(  c #C39F5E",
")  c #CEA642",
"_  c #C8A447",
"`  c #C6A74C",
"'  c #C8A24B",
"]  c #C9A64D",
"[  c #C9A94E",
"{  c #CFAB4D",
"}  c #CCAA4F",
"|  c #CEAA4F",
" . c #CFAA4F",
".. c #C2A153",
"X. c #C6A350",
"o. c #C0A056",
"O. c #C7A456",
"+. c #CDAA55",
"@. c #C3A358",
"#. c #C3A25B",
"$. c #C6A55B",
"%. c #C2A05F",
"&. c #C4A55C",
"*. c #C5A55E",
"=. c #C5A65E",
"-. c #C6A75F",
";. c #C9A758",
":. c #CCAB58",
">. c #CEAA5A",
",. c #C8A85D",
"<. c #CBAB5E",
"1. c #CAAA5F",
"2. c #CCA85E",
"3. c #CEAE5E",
"4. c #CFAE5F",
"5. c #D2AD57",
"6. c #D0AE59",
"7. c #D2AF59",
"8. c #D2AF5A",
"9. c #D1AB5C",
"0. c #D8B252",
"q. c #D4B058",
"w. c #D5B058",
"e. c #D5B25B",
"r. c #D8B25A",
"t. c #D8B45B",
"y. c #DAB65A",
"u. c #D8B35C",
"i. c #DAB55D",
"p. c #D9B75D",
"a. c #DBB55F",
"s. c #DEB75D",
"d. c #DFBB5F",
"f. c #C1A161",
"g. c #C0A062",
"h. c #C4A462",
"j. c #C5A562",
"k. c #C3A366",
"l. c #C6A566",
"z. c #CAA764",
"x. c #C7A861",
"c. c #C8A860",
"v. c #CEAB60",
"b. c #CEAE60",
"n. c #CBAC64",
"m. c #CBAE67",
"M. c #CFAF68",
"N. c #CFAF6A",
"B. c #D2AE63",
"V. c #D2AF65",
"C. c #CFB067",
"Z. c #CFB169",
"A. c #D0B061",
"S. c #D0B063",
"D. c #D2B262",
"F. c #D7B666",
"G. c #DFB961",
"H. c #DEBB60",
"J. c #D5B568",
"K. c #D4B569",
"L. c #D5B56A",
"P. c #D7B76A",
"I. c #D4B66D",
"U. c #DABA6B",
"Y. c #DBBB6C",
"T. c #DFBE6C",
"R. c #E1BC64",
"E. c #E4BE66",
"W. c #E5BE66",
"Q. c #E5BE67",
"!. c #E6BE67",
"~. c #E6BF69",
"^. c #E2C067",
"/. c #E4C167",
"(. c #E1C269",
"). c #E4C26B",
"_. c #E6C46A",
"`. c #E3C26F",
"'. c #E7C36C",
"]. c #E8C36A",
"[. c #EBC469",
"{. c #E8C76B",
"}. c #EDC76D",
"|. c #E5C86C",
" X c #F0CA6F",
".X c #E5C572",
"XX c #E7CB71",
"oX c #ECCA72",
"OX c #EFCB72",
"+X c #EECD74",
"@X c #EDCF74",
"#X c #F0CC71",
"$X c #F2CD72",
"%X c #F2CE73",
"&X c #F1CF75",
"*X c #F2CF75",
"=X c #F2D277",
"-X c #F4D276",
";X c #F4D377",
":X c #F2D278",
">X c #F5D479",
",X c #F6D67A",
"<X c #F7D77A",
"1X c None",
/* pixels */
"1X1X1X1X1X~ @.R H S 1X1X1X1X1X1X",
"1X1X1X&.*.x.-.#.Q K B A 1X1X1X1X",
"1X1X1.n.m.! c M F l V P m L 1X1X",
"1X3.C.Z.T h 5 6 q t k U E D 1X1X",
"1XS.I.=.:.| { } ] _ ' 2.%.o.I 1X",
"6.K.M.F.{.@XXX|.(.^.G.W.z.h.W 1X",
"e.L.N.q._.<X:Xy.H.#X[.s./ k.,.A.",
"d.V.G < ].-X=Xs [ ;X Xr.+ g.J.T.",
"0.v.z % Q.$X&Xa ` ,X%Xi.O f.P.`.",
") >.l.^ a.}.OX .p.>X*XR.n j.Y..X",
"2 b ( B.!.~.'./.).+XoXE.$.c.b.U.",
"1X* N Y 9.5.w.7.8.t.u.O.J <.D.1X",
"1X. , j g 0 & 3 4 ; r x ..;.4.1X",
"1X1X  = y 7 # e w @ f C X.+.1X1X",
"1X1X1XX - > 8 u p i v b Z 1X1X1X",
"1X1X1X1X1Xo $ : 1 9 d 1X1X1X1X1X"
};
