/* XPM */
static char *result[] = {
/* columns rows colors chars-per-pixel */
"32 32 161 2 ",
"   c #846206",
".  c #8B6706",
"X  c #88650A",
"o  c #8C690B",
"O  c #8D6C15",
"+  c #8B6B1C",
"@  c #94661E",
"#  c #9A6B1B",
"$  c #9B7615",
"%  c #9B731C",
"&  c #A4731D",
"*  c #A07C1D",
"=  c #AB7A1E",
"-  c #8E5F20",
";  c #956824",
":  c #937527",
">  c #9D7324",
",  c #9F7F26",
"<  c #94752B",
"1  c #9D752A",
"2  c #9B7C2B",
"3  c #927432",
"4  c #987733",
"5  c #9B7B33",
"6  c #937839",
"7  c #9A7F3E",
"8  c #A47622",
"9  c #A47C23",
"0  c #A87B25",
"q  c #A27C2C",
"w  c #AA7F28",
"e  c #A27A33",
"r  c #A87F36",
"t  c #AC811F",
"y  c #9C803E",
"u  c #AE8126",
"i  c #A3822C",
"p  c #AC822B",
"a  c #AE8A2F",
"s  c #B28422",
"d  c #B1872D",
"f  c #B18B2F",
"g  c #BA902D",
"h  c #A58333",
"j  c #AC8332",
"k  c #AB8933",
"l  c #A4833B",
"z  c #A9833C",
"x  c #A6883A",
"c  c #AB8A3D",
"v  c #B38B33",
"b  c #B88E30",
"n  c #B58C3D",
"m  c #B19036",
"M  c #BA9034",
"N  c #B7903C",
"B  c #BB943B",
"V  c #BF983F",
"C  c #C89C33",
"Z  c #C39C3C",
"A  c #C89F3C",
"S  c #CCA23D",
"D  c #A58441",
"F  c #AB8444",
"G  c #A58944",
"H  c #AC8A44",
"J  c #A28649",
"K  c #A3884A",
"L  c #AD8C4B",
"P  c #B38D42",
"I  c #B28E4B",
"U  c #AC904E",
"Y  c #B59244",
"T  c #BB9443",
"R  c #BD9943",
"E  c #B4934C",
"W  c #B9974D",
"Q  c #B7984D",
"!  c #BA994B",
"~  c #AD9150",
"^  c #B49351",
"/  c #BA9654",
"(  c #B69954",
")  c #BD9C53",
"_  c #B79658",
"`  c #B89759",
"'  c #BD9D5B",
"]  c #BFA25B",
"[  c #C19B44",
"{  c #C39E4C",
"}  c #C19E52",
"|  c #C19E5B",
" . c #C7A046",
".. c #CBA342",
"X. c #C4A14D",
"o. c #CCA54F",
"O. c #D2A841",
"+. c #D5AD4B",
"@. c #DAB34F",
"#. c #C3A355",
"$. c #CAA652",
"%. c #C6A852",
"&. c #CCA954",
"*. c #C4A45B",
"=. c #C9A55C",
"-. c #C7A958",
";. c #CBAA5C",
":. c #D4AD52",
">. c #D2AE5C",
",. c #CFB15A",
"<. c #D5B156",
"1. c #DBB354",
"2. c #D4B25C",
"3. c #DBB55C",
"4. c #DDB95B",
"5. c #E3BA5C",
"6. c #E8BF5D",
"7. c #C09F63",
"8. c #C4A464",
"9. c #C8A766",
"0. c #C7AA62",
"q. c #CCAC64",
"w. c #C5A56A",
"e. c #CAAA6B",
"r. c #CEB164",
"t. c #CFB16A",
"y. c #D4B363",
"u. c #DAB663",
"i. c #D7B862",
"p. c #DBB965",
"a. c #D2B46B",
"s. c #D7B96D",
"d. c #DDBD6C",
"f. c #D3B471",
"g. c #D7B971",
"h. c #DBBD72",
"j. c #E3BD65",
"k. c #E9BF62",
"l. c #E0BD69",
"z. c #E9C15E",
"x. c #DEC16A",
"c. c #DEC177",
"v. c #EBC464",
"b. c #E4C26C",
"n. c #ECC56C",
"m. c #E5C96D",
"M. c #EECA6D",
"N. c #F2CB6D",
"B. c #F8CD6F",
"V. c #E4C372",
"C. c #E6CA72",
"Z. c #ECCB72",
"A. c #E5C778",
"S. c #F1CD73",
"D. c #ECD175",
"F. c #EFD378",
"G. c #F4D275",
"H. c #F6DB76",
"J. c #F5D579",
"K. c #F7D97B",
"L. c None",
/* pixels */
"L.L.L.L.L.L.L.L.L.L.L.L.] -.) ) ( ] ) L.L.L.L.L.L.L.L.L.L.L.L.L.",
"L.L.L.L.L.L.L.L.L.L.*.) *.&.) ) E ! Q Q W ) L.L.L.L.L.L.L.L.L.L.",
"L.L.L.L.L.L.L.L.] *.*.] ' ;.] ' ) ) ) E ! H { / L.L.L.L.L.L.L.L.",
"L.L.L.L.L.L.;.*.0.] t.t.q.r.q.;.=.-.*.) ) ^ ! E ! L.L.L.L.L.L.L.",
"L.L.L.L.L.*.;.*.e.a.a.*.~ U ` G L ` H Y } #.#.! H ) ] L.L.L.L.L.",
"L.L.L.L.;.r.8.g.h.0.~ K J J ^ Y / ^ G G H E } #.! H ! #.L.L.L.L.",
"L.L.L.y.;.0.g.s.] ~ ~ U G 5 m i H H H Y I I ^ | #.Q ! } L.L.L.L.",
"L.L.L.-.t.g.h.] ( ( Q k * , y i q i i p z I / / ) #.! ! | L.L.L.",
"L.L.;.y.f.h.0.] ' ) S Z S S Q S V R S B B T | | 7.| -.! ! *.L.L.",
"L.p.2.0.V.q.*.*.;.z.3.,.4.z.-.v.,.2.z.#.o.5.j.q.7.7.*.| Q | L.L.",
"L.2.y.h.s.9.0.r.G.m.b.F.x.D.r.H.x.i.M.2.5.>.N.b.9.8.7.=.) ) q.L.",
"L.-.y.h.q.e.y.M.M.x.K.K.D.C.x.G.x.x.l.j.n.3.3.B.;.8.w.8.;.) *.L.",
"<.{ 9.s.e.a.b.z.2.D.K.K.K.J.p.z.3.M.Z.M.n.v.3.5.&.' w.8.=.Y ] L.",
"4.l.V.y.e.f.&.Z p.G.J.J.G.G.i.S  .Z.S.S.n.n.k.>.B U w.w.q.i.p.d.",
"1.b.b.q.9.e.p i b.G.G.G.G.K.2.t m D.G.G.M.n.b.2.9 5 7.w.q.d.d.d.",
"@.j.d./ F F o i n.S.G.G.S.K.&.o i D.G.G.N.N.n.&.o + 8.e.q.d.d.d.",
"+.u.l.} L l   8 k.S.S.S.S.J.%.. , D.H.G.S.Z.n.$.X + w.9.q.x.b.V.",
"O.:.u.8.w.' # e l.n.N.S.S.J.&.$ a C.K.G.G.Z.M.u.% : 9.9.e.b.V.V.",
"S +.u.=.w.e.Z r 3.n.n.S.S.G.2.g R D.J.G.G.S.n.u.f c 8.8.a.V.V.V.",
"C S 2.=.7.e.>. .=.j.n.n.Z.S.u.+.&.Z.J.G.G.S.n.3.{ ! 9.0.p.V.V.A.",
"L.b T $.| 7.e.k.3.j.j.n.n.N.p.v.u.Z.G.G.G.Z.j.k.;.] *.=.y.y.V.L.",
"L.8 j { } 7.7.u.B.j.l.j.l.b.y.G.d.x.m.Z.S.d.b.n.| *.*.y.;.Q r.L.",
"L.s > z { } 7.` j.B.j.>.u.M.#.B.i.i.n.p.V.j.n.#.^ ] *.a.r.p.L.L.",
"L.L.@ p P [ ^ / I } :.{ :.:.Q 1.#.o.1.$.:.:.) L H ) q.;.2.s.L.L.",
"L.L.s % q T T P I F z f f v x k x c a a k x U U Y -.;.-.-.L.L.L.",
"L.L.L.= 8 q Z n r H F < + + 5 O : 2 + 3 y K H Y -.;.{ ;.y.L.L.L.",
"L.L.L.L.# 8 w n n r r r e 4 F l c y 6 y y y E #.$.:.&.#.L.L.L.L.",
"L.L.L.L.L.& 8 0 v M p q 1 5 P e l x 3 4 x ! X.[ H o.:.L.L.L.L.L.",
"L.L.L.L.L.L.= - 0 g b b j v P j P T n Y [ [ Y ! T ! L.L.L.L.L.L.",
"L.L.L.L.L.L.L.@ = s 0 8 j b v v N N N k N T B Y L.L.L.L.L.L.L.L.",
"L.L.L.L.L.L.L.L.L.8 8 ; 8 w w p v f e M N N Z L.L.L.L.L.L.L.L.L.",
"L.L.L.L.L.L.L.L.L.L.L.L.0 0 s w w d q M L.L.L.L.L.L.L.L.L.L.L.L."
};
