/* XPM */
static char *result[] = {
/* columns rows colors chars-per-pixel */
"64 64 223 2 ",
"   c #7C5B04",
".  c #784C17",
"X  c #7A5419",
"o  c #7A601D",
"O  c #7B6128",
"+  c #7C6530",
"@  c #7E5226",
"#  c #825F02",
"$  c #86591A",
"%  c #856204",
"&  c #8D690B",
"*  c #8A6606",
"=  c #916B0B",
"-  c #97710D",
";  c #86641A",
":  c #946A19",
">  c #957114",
",  c #9A7516",
"<  c #9B771C",
"1  c #AF7D1D",
"2  c #A2791A",
"3  c #B17E1D",
"4  c #865B25",
"5  c #896828",
"6  c #946D23",
"7  c #9A6D22",
"8  c #94692A",
"9  c #8E712C",
"0  c #9C7324",
"q  c #9B742C",
"w  c #967629",
"e  c #856C31",
"r  c #956C33",
"t  c #8E7335",
"y  c #947434",
"u  c #9D7434",
"i  c #957935",
"p  c #9A7B35",
"a  c #947739",
"s  c #9C7C3B",
"d  c #95773B",
"f  c #A27522",
"g  c #A37C22",
"h  c #A37A2B",
"j  c #A87C25",
"k  c #A37B33",
"l  c #A37C3B",
"z  c #A67B36",
"x  c #997D42",
"c  c #997C45",
"v  c #A27F41",
"b  c #B4831D",
"n  c #B9881E",
"m  c #AF801D",
"M  c #9E833A",
"N  c #A78225",
"B  c #AA8424",
"V  c #AD832D",
"C  c #AB8529",
"Z  c #B38423",
"A  c #B48A25",
"S  c #B98C23",
"D  c #B28529",
"F  c #BA8E2B",
"G  c #B5882D",
"H  c #BD922D",
"J  c #BF9125",
"K  c #A4833D",
"L  c #AB843B",
"P  c #AD893C",
"I  c #A88737",
"U  c #B48D31",
"Y  c #B58B3A",
"T  c #BC9434",
"R  c #BC953A",
"E  c #B5913A",
"W  c #C5982B",
"Q  c #C19633",
"!  c #C39A36",
"~  c #C29539",
"^  c #C39B3B",
"/  c #CA9D35",
"(  c #CDA23B",
")  c #CCA036",
"_  c #D1A73F",
"`  c #9E8244",
"'  c #9E834A",
"]  c #A38443",
"[  c #AA8542",
"{  c #A58944",
"}  c #AC8B45",
"|  c #A38549",
" . c #A68A4B",
".. c #AC8C4B",
"X. c #A98448",
"o. c #B18C45",
"O. c #B38E4B",
"+. c #AD914D",
"@. c #AE9046",
"#. c #B39247",
"$. c #BA9645",
"%. c #BD9943",
"&. c #B3934C",
"*. c #B9954C",
"=. c #B7994E",
"-. c #BC9B4C",
";. c #AC8C52",
":. c #A38752",
">. c #AE9352",
",. c #AE9058",
"<. c #B39552",
"1. c #B99554",
"2. c #B59A54",
"3. c #BB9C54",
"4. c #B4955A",
"5. c #B69B5A",
"6. c #BC9C5B",
"7. c #BA9659",
"8. c #B08F51",
"9. c #BDA15A",
"0. c #BCA056",
"q. c #BFA04F",
"w. c #BD9D63",
"e. c #BD9F69",
"r. c #BEA162",
"t. c #C59D43",
"y. c #C29E4D",
"u. c #C79C43",
"i. c #C19E54",
"p. c #C19E5B",
"a. c #CBA343",
"s. c #C5A24C",
"d. c #CCA44B",
"f. c #CCA64B",
"g. c #D4AA46",
"h. c #D3AB4C",
"j. c #D9AE48",
"k. c #D4AA49",
"l. c #DAB14C",
"z. c #C4A353",
"x. c #C9A653",
"c. c #CCA955",
"v. c #C3A45C",
"b. c #C9A65C",
"n. c #C4A95E",
"m. c #CCAB5C",
"M. c #D2AD54",
"N. c #D8AF50",
"B. c #D2AE5C",
"V. c #D5B056",
"C. c #DBB453",
"Z. c #D4B25C",
"A. c #DAB45B",
"S. c #DDB95D",
"D. c #DEB857",
"F. c #CEB05C",
"G. c #E1B754",
"H. c #E6BB57",
"J. c #E3BA5B",
"K. c #E9BE5C",
"L. c #C09E63",
"P. c #C4A363",
"I. c #C9A763",
"U. c #C6A963",
"Y. c #CBAC63",
"T. c #C5A56B",
"R. c #CBAB6B",
"E. c #C7A86A",
"W. c #CFB165",
"Q. c #CEB26A",
"!. c #D3B364",
"~. c #DAB562",
"^. c #DCBA65",
"/. c #D3B46B",
"(. c #DCBC6B",
"). c #D6B967",
"_. c #CBAC73",
"`. c #C9AB74",
"'. c #CFB174",
"]. c #D2B572",
"[. c #D6B972",
"{. c #DBBD73",
"}. c #D7B97B",
"|. c #D0AF60",
" X c #E3BC64",
".X c #E1BE6A",
"XX c #E9BF63",
"oX c #E2BF70",
"OX c #ECC15B",
"+X c #DFC06C",
"@X c #DFC177",
"#X c #EAC166",
"$X c #E3C26D",
"%X c #EBC46B",
"&X c #EFC96E",
"*X c #E5C76B",
"=X c #F1C665",
"-X c #F4CA66",
";X c #F2C769",
":X c #F2CA6D",
">X c #F9CE6D",
",X c #F7D26A",
"<X c #F9D16D",
"1X c #E4C472",
"2X c #EECB72",
"3X c #E2C57C",
"4X c #E6C97C",
"5X c #E7C975",
"6X c #F1CD73",
"7X c #FACF70",
"8X c #E7D271",
"9X c #F3D176",
"0X c #FCD473",
"qX c #FCDB75",
"wX c #F5D579",
"eX c #F6D97B",
"rX c #FCD978",
"tX c #FDE37B",
"yX c #FBE076",
"uX c #DEC284",
"iX c #E5CA82",
"pX c #E6C981",
"aX c None",
/* pixels */
"aXaXaXaXaXaXaXaXaXaXaXaXaXaXaXaXaXaXaXaXaXaXaXaXaXaXaXaXaX5.r.6.9.5.aXaXaXaXaXaXaXaXaXaXaXaXaXaXaXaXaXaXaXaXaXaXaXaXaXaXaXaXaXaX",
"aXaXaXaXaXaXaXaXaXaXaXaXaXaXaXaXaXaXaXaXaXaXaXaX6.n.b.c.s.*.z.c.&.&.s.x.c.0.3.5.aXaXaXaXaXaXaXaXaXaXaXaXaXaXaXaXaXaXaXaXaXaXaXaX",
"aXaXaXaXaXaXaXaXaXaXaXaXaXaXaXaXaXaXaXaXaX9.m.q.z.c.c.c.3.| <.c...| x.-.y 3.z.-.z.0.5.aXaXaXaXaXaXaXaXaXaXaXaXaXaXaXaXaXaXaXaXaX",
"aXaXaXaXaXaXaXaXaXaXaXaXaXaXaXaXaXaX5.b.z.c.2.,.5.m.m.m.b.5.4.c...] c.&.4.=.x.s l z.y.i.6.aXaXaXaXaXaXaXaXaXaXaXaXaXaXaXaXaXaXaX",
"aXaXaXaXaXaXaXaXaXaXaXaXaXaXaXaX5.Y.m.B.<.W.Y.' ;.m.m.B.Y.<.4.m.4.-.m.} 5.b.i.s q.x.p ..z.x.6.aXaXaXaXaXaXaXaXaXaXaXaXaXaXaXaXaX",
"aXaXaXaXaXaXaXaXaXaXaXaXaXaXaXY.Z.{ 9.!.I.9.W.r...Q.b.2.Y.] 3.B.&.X.m.&.x c.&.<.z.s.y | z.-.O.z.5.aXaXaXaXaXaXaXaXaXaXaXaXaXaXaX",
"aXaXaXaXaXaXaXaXaXaXaXaXaXb.m.z.Z.b.,.Q.!.w.W.9.U.I./././././.!.W.W.Y.W.|.m.*.v b.o.....x.y.s &.x.v.aXaXaXaXaXaXaXaXaXaXaXaXaXaX",
"aXaXaXaXaXaXaXaXaXaXaXaX!.m.5.5././.;.;./.U.).@X{.{.).^.m.b.m.Z.c.b.z.M.m.m.Y.Y.|.2.} v.c.K 3.d.$...z.6.aXaXaXaXaXaXaXaXaXaXaXaX",
"aXaXaXaXaXaXaXaXaXaXaXF.B.!.6. .r.).r.Q.[.@X+X+Xb.&. .:.E.e.} K l e.e.;.{ [ y.x.x.I.Y.c.z. .x.y.s s v.x.9.aXaXaXaXaXaXaXaXaXaXaX",
"aXaXaXaXaXaXaXaXaXP.^...<.).).6.r.].@X@X@X).2.' x | x x 2.4.l l l 4.6.8.l [ s L o.y.x.b.Y.x.c.K l [ x.x.i.n.aXaXaXaXaXaXaXaXaXaX",
"aXaXaXaXaXaXaXaXU.!.^.z.E.P.{.Y.@X@X4X).+.`  .' | | ] ' 1.5.I K z 5.I.X.v { X.[ } X.o.y.y.I.m.=.v z.z.p ] z.b.aXaXaXaXaXaXaXaXaX",
"aXaXaXaXaXaXaXaX!.0.(.(.v.5.].3X4X+X9. . .' +.' +.` ` +.| 3.9.F.b.I...O.[ [ } } o.X.O.} *.y.v.m.z.-.p y 3.c.c.U.aXaXaXaXaXaXaXaX",
"aXaXaXaXaXaXaX^.z.<.P.[.(.U.@X4X).>.>. . .+. . .;.| +.' 2.0.M @./.m.&.@.&. ...} o.O.O.O.O.8.i.i.Y.3.} } c.-.s x.U.aXaXaXaXaXaXaX",
"aXaXaXaXaXaX).^.(.b.>.2.[.pX4XY.<.>.>.+.<.>.>.<. .M o & >.P &   % y &.w =.b.9.*.O.O.O.1.1.1.1.1.y.Y.z.b.&.p z.c.b.aXaXaXaXaXaXaX",
"aXaXaXaXaX!.i.@.(.1XY.'.pX5Xn.2.2.2.>. .0.5.=.I > - , > @.M > - , i K - > & < I { *.*.&.1.1.1.1.3.y.Y.b.] z.c.c.q.Y.aXaXaXaXaXaX",
"aXaXaXaXaX(.c.9.Q.R.1XpX5XI.2.3.2.9.2.9.9.E N N B B B B +.I B B B K } B g N < N 0 9 ` 3.1.1.6.6.7.5.s.W.-.n.c.s ] c.Y.aXaXaXaXaX",
"aXaXaXaX^. X$XW.0.r.pX3XY.3.6.0.0.9.6.0.E T H T T ! ! ! >.@.! ! R K #.T T T T T U U U #.1.p.6.p.p.6.p.i.Y.b.y #.c.z.Y.aXaXaXaXaX",
"aXaXaXaXc.K m.@X{.}.4X).0.v.v.v.b.0.@.g.g.g.g.g.( j.l.g.=.=.j.j.j.@.=.g.g.f.( g.g.a.u.u.Y.p.p.p.L.6.p.p.z.!.z.Z.c.<.6.Y.aXaXaXaX",
"aXaXaX XZ.3.n.r.pXiX(.v.v.v.b.I.6.=.G.H.G.OXs.+.q.OXOXOX2.0.OXOXOX=.=.OXOXOXM ] y.H.G.N.N.{.P.L.L.L.L.w.x.I.m.a 9 s #.F.aXaXaXaX",
"aXaXaX X#X).0.>.iX1Xb.P.U.U.U.0.<.-X-X-X-X<.).eXz.,X,X8X0.9.,X,X,X=.3.,X,X,X#.$X3.@.=X=XXXXXoXL.L.L.L.L.L.y./.<.Y.Z.Z.z./.aXaXaX",
"aXaX^.S.$X1X5X3XpX~.P.U.U.I.W. .<XqX0X9X+.8XeXeX9.yXyXyX9.9.yXyXyX0.0.yXqXqX2.#XXXM. .<X<X-X:X~.P.T.P.L.L.b.b.!.m.#.y X./.aXaXaX",
"aXaXS.} z./.U.pX{.b.U.U.Y.W.>.9XqXqXqX>.9XeXiXeX+X8X8X8X9.n.tXtXtX0.W.8X8X8X2.#X#X XA. .qX0X7X:Xp.P.T.T.T.L.i./.&.+.<.n.m.).aXaX",
"aX!. X X!.3.Q.iX~.P.E.Y.Q.U.^.qXqXtX2.2XeXeXtXtX8X).Q.Q.wX9.yXyXyX0.*Xn.b.b.~.;X%X#XXXB.<.qX0X7Xc.P.P.E.T.L.I.U.Y.v.!.A.!./.aXaX",
"aXS.E b.!.5X4X3Xm.E.I.Y./.!.0X0XqXm.).wXrXeXeXeXiXyXeXyXyX9.0X0XqX2.9X9X:X2X:X%X%X#XXX Xi.B.0X-X;XX.E.T.T.T.L.i.(.B.=.P s /.aXaX",
"aXA.I #.1.R.iX~.I.I.R././.&X-X-X#X<.9XwXeXeXeXrXeXeXwXwX9X2.=X-X-X=.:X&X9X:X&X&X%X%X#X#XJ.-.=X#XXXo.L.E.T.T.L.b.Q.6.` a M !.[.aX",
"aXJ.c.q.&.R.pXB.E.R.R./.uXH.H.H.#.%X9XeXeXeXeXeXwXwX9X6X8X0.K.OXOX<.9X8X&X&X&X&X;X%X%X#X X~.M.G.C.M.c R.`.L.w.P.U.!.L #.b.!.{.aX",
"Z.G.#X+X1X4XoXb.R.R.Q./.3Xg.g.g.+.9X9XwXeX9XeXwXwXwX6X9XwX=.j.j.j.<.9X9X9X2X,X2X&X%X%X#X#XJ.(.g.a.u.a E.`.e.T.L.z.(.(.^.).^.(.aX",
"D.D.+X$X1X4X(.I.P.R.].}.F.T R C !.<X9X9XwX9XeXwXwX6X9XeXeX@.) ) ! @.wX9X9X9X2X&X&X;X%X%X#X X.Xx.T U w P.T.L.T.`.-.{.(.^.^.).(.aX",
"D.D.S.*X1XiXB.P.P.'./.uXD V B y :X6X9X0X9XwXwXwX9X6XrXeXeX#.S S A { 8XwX9X9X,X2X&X&X%X%X#XXX^.W.N g < :.R.L.`.L.z./.(.(. X(.(.aX",
"l.D.S.$X$X4Xc.T.'.R./.]., , , s &X6X9X9X9X9X6XwX6X9XrXiXeX{ , 2 N { eXwX9X9X9X2X6X&X:X%X#XXX Xm.> - > a w.`.U.T.Y.Q. X+X(.(.(.aX",
"l.C.S.$X$X@Xc.X.;.X.L.1.* = = { &X6X6X6X6X9X9X6X4X9XwXwXwXK = = = M yXeXwX9X9X9X6X&X2X%X%X#X Xc.& % % e L._.E.E.b.Y.(.(.$X(. X@X",
"j.l.S.+X+X@Xc.u u z v v # # # O.%X:X:X6X9X6X0X6X6X9XwXwX9XM % * * M eXeXwX9X9X9X6X2X:X%X&X%X X-.% %   O R.`.R.U.I.R.$X$X(..X(.3X",
"g.l.A. X.X{.b.u r l X.e # % # <.oX&X:X6X6X6X6X6X2X9XwX9X9XM * * * M eXeX8XwXwX9X6X6X6X;X&X#X.X&.#     ; R.R._.P.Y.Y..X.X$X.X(.pX",
"g.k.C.~..XoXb.L.7.w.P.y % % % +.XX&X&X:X6X7X6X6X9X8XwXwX9XI * * = M eXeXeXeXwX9X6X6X6X2X&X&XXXi.* #   5 '.T.R.P.Y.R.1X$X1X.X.X3X",
"_ g.N.~.~.{.x.L._.I.].{ & = = { XX&X&X&X2X6X2X6X2X9XwX9X9XM - - - M yXeXwX8XwX9X6X6X6X2X&X&X X!.& & & e Q._.I.E.b.Q.%X$X$X1X$XpX",
"( _ h.A.~.{.u.L.`.E.R.U., < < p oXXX%X&X;X2X6X6X2X2X9X9XwXI , N m M eXeXeXeXeX9X6X6X6X2X2X%X.X(., < > i R._.I.P.Y.Q.oX$X$X$X1XaX",
") ( g.V.~.{.u.L.L._._.}.B B B t XXoX;XXX;X2X2X2X6X6X6X9X9X@.A A A { wXwXeXwXwX9X9X9X6X6X6X%X$X/.N N N ' Q.E.P.L.m.[.5X$X$X1X$XaX",
"( ) _ V.M.~.B.p.L.T._._.s.~ T q |.XXXXoX%X%X;X2X6X6X2X9X9X@.! T ^  .eXeXwXwX9X9X9X6X6X2X6X%X5XB.U U w w.Y.U.P.E.z.5X$X1X1X1X5XaX",
"aX/ ) h.M.~.B.p.L.T.T._.].u.u.u.v  XXX&X%X%X%X&X&X6X6X6X6X*.g.g.j.<.wXwX9XwX9X9XwX9X6X6X2X%X4Xa.a.u.i Y.I.E.E.b.b.5X1X$X1X1X3XaX",
"aXW ) f.h.B.!.u.L.T.L.R.}.N.N.N.X. XXXoX.X%X%X&X&X&X2X6X6X-.G.G.G.+.9XwXwX9XwX9X9X9X6X6X2X.X~.N.N.h.` I.E.U.v.I.E.1X$X%X5X$X4XaX",
"aXW W ( f.V.!.t.7.L.L.`.`.J.XXK.A.i. X X XXXoXXX%X2X2X&X2X3.-X=X-X=.9X9X9X9X9X9X9X4X9X2X2XY.K.J.J.-.5.I.U.v.n.m./.1X1X$X1X1XaXaX",
"aX! W h q q B.c.p.L.L.L.L.L.;X;X=XB.~. X XoXoXXX%X%X&X2X6X3.<X<X,X2.9X9X9X9X9X9X9X9X9X2X(.c.;X=X=X' b.P.v.P.v.n.5X3.z.!.$X5XaXaX",
"aXaX0 $ q 8 z.!.u.7.L.L.T.L.~.7X7X7XoX~. X XXXoX$X#X$X$X2X0.qXqXqX5.9X2X2X2X9X9X9X9X2X1X<.>X>X7Xz.<.U.U.v.p.m.R.(.I p K =.4XaXaX",
"aXaXD X T R d.c.u.1.p.p.L.L.c 7X7X7X7XpX~. XXX;XZ.(.(.%Xb.0.rXrXqX2.+X).+X+XQ.9X2X2X2X2.6X0X7X:X' I.v.p.v.p.c.{.$XW.3.*.!.aXaXaX",
"aXaXaXS W U w -.c.~ 7.7.L.L.w.X.7X7X7X0X}.~. X X3.qX0X0X>.3.qX0XqX2.9.0XqXqX5.2X5X2Xb.%X0X>X>X .9.v.9.p.6.m.U.(.m.$X$X$X@XaXaXaX",
"aXaXaXS ; . 5 L c.u.*.7.7.w.L.c 1.XX;XXX7XB.B.~.2.>X>X<X>.2.>X<X>X2.2.<X>X:X<.2X5XY.#X;X=X;X<.` { v.0.3.3.m.{.(.z.=.!.$X4XaXaXaX",
"aXaXaXH . . 6 T u.b.~ O.O.p.7.p.c 1.J.J.J.J.y.8.=.J.K.OX+.=.OXOXOX+.2.OXK.K.@.(.m.J.J.J.J.#.' { P o.5.3.Z.U.^.).(.^.-.{.aXaXaXaX",
"aXaXaXaXf 2 J ~ k u.d.Y O.1.1.8.1.:.l d.d.h.d.u.d.h.f.h. ...N.h.h. .<.h.h.h.s.d.h.h.h.f.] | 9.#.L L X.c.n.$X} #.W.$X X3XaXaXaXaX",
"aXaXaXaXaXn S : $ w s.u.E O.O.1.X.p.v r Y R R R R R R R { ` R R T ` +.R R R R R R R E t | 2.>.=.o.K -.m.!.^.-.3.3.I.$XaXaXaXaXaX",
"aXaXaXaXaXS X . 0 T / s.~ Y o.o.v O.7.O.+ : N g N N N N ' p B B B M  .B B B B B N w t >.<.+.=.&.#.#.Z.W.c.!.^.z.I z.aXaXaXaXaXaX",
"aXaXaXaXaXaX2 n S Q ; o.y.~ Y [ z O.O.O.=.s O ; > & > > ` i > > > M ' > > > > o + ` +.+. .@.@.@.&.Z.U.A.[ *.A.^.^.(.aXaXaXaXaXaX",
"aXaXaXaXaXaXaXb 3 . 4 u ~ y.~ G z v Y Y } o.o.s O X   % d p % %   e <.    o + x  . .` { { { { &.Z.n.Z.Z.$.v.&.!.).aXaXaXaXaXaXaX",
"aXaXaXaXaXaXaXA . $ $ B W L t.~ D z z L L L l P ] P p O { O.5 X e @.<.+ d ' ` | M ` ` M M K q.F.n.V.V.V.Z.%.p m.aXaXaXaXaXaXaXaX",
"aXaXaXaXaXaXaXaXb 3 b S Z $ L R R Q z z h z z z l p K L l 3.B.B.M.+.M M ] i i M M d M M K Z.n.c.-.V.M.B.Z.M.M.aXaXaXaXaXaXaXaXaX",
"aXaXaXaXaXaXaXaXaX3 3 1 . j G F T %.~ D h h h q h q q p $.1.k q q <.&.M t y M y i t i q.Z.q.c.P } 3.M.M.N.M.).aXaXaXaXaXaXaXaXaX",
"aXaXaXaXaXaXaXaXaXaX3 $ 6 b S $ 4 R ~ R Q D h : 0 q 6 l -...7 7 7 ..} 9 5 y 9 5 M %.Z.q.z.%.g.s.q w z.h.M.).aXaXaXaXaXaXaXaXaXaX",
"aXaXaXaXaXaXaXaXaXaXaXj 3 3 : 4 4 F H W T %.~ Q V f 6 r 1.v : $ 6 ..4.K 5 p E f.z.q.s.d.I q -.f.$.} l c.aXaXaXaXaXaXaXaXaXaXaXaX",
"aXaXaXaXaXaXaXaXaXaXaXaXaX3 4 . f S S S B V T R R R ! / ~ R u.a.u.y.t.h.f.s.q.-.a.a.P a.%.} [ x.d.E f.aXaXaXaXaXaXaXaXaXaXaXaXaX",
"aXaXaXaXaXaXaXaXaXaXaXaXaXaX8 $ 3 b n n : Y S 7 V T T E $.R %.%.t.%.%.E %.u.U 6 k ^ z y.d.L { $.a.c.aXaXaXaXaXaXaXaXaXaXaXaXaXaX",
"aXaXaXaXaXaXaXaXaXaXaXaXaXaXaXaX3 3 b 3 4 S A . r H F q H 0 7 T H z Q T 5 ~ T w y.u.%.o.^ ^ 0 t.aXaXaXaXaXaXaXaXaXaXaXaXaXaXaXaX",
"aXaXaXaXaXaXaXaXaXaXaXaXaXaXaXaXaXD 3 7 8 3 f 4 e F D k F h 8 F T s H ~ $ $.^ $.[ ^ ! s ~ a.aXaXaXaXaXaXaXaXaXaXaXaXaXaXaXaXaXaX",
"aXaXaXaXaXaXaXaXaXaXaXaXaXaXaXaXaXaXaXaXf 3 $ r r n f z S G k S F l H R 8 l H T s T ! ! aXaXaXaXaXaXaXaXaXaXaXaXaXaXaXaXaXaXaXaX",
"aXaXaXaXaXaXaXaXaXaXaXaXaXaXaXaXaXaXaXaXaXaXj 7 j Z $ j n j q S S d S F 5 r H H U t.aXaXaXaXaXaXaXaXaXaXaXaXaXaXaXaXaXaXaXaXaXaX",
"aXaXaXaXaXaXaXaXaXaXaXaXaXaXaXaXaXaXaXaXaXaXaXaXaXaXj D Z j f Z S 7 S G G aXaXaXaXaXaXaXaXaXaXaXaXaXaXaXaXaXaXaXaXaXaXaXaXaXaXaX"
};
